Francais1958 - Archimede le clochard - Gabin - Audiard.Avi
Format                                   : AVI
Format/Info                              : Audio Video Interleave
File size                                : 731 MiB
Duration                                 : 1h 32mn
Overall bit rate                         : 1 110 Kbps
Writing library                          : VirtualDub build 13870/release

Video
ID                                       : 0
Format                                   : MPEG-4 Visual
Format settings, BVOP                    : Yes
Format settings, QPel                    : No
Format settings, GMC                     : No warppoints
Format settings, Matrix                  : Default (H.263)
Codec ID                                 : DX50
Codec ID/Hint                            : DivX 5
Duration                                 : 1h 32mn
Bit rate                                 : 1 037 Kbps
Width                                    : 512 pixels
Height                                   : 296 pixels
Display aspect ratio                     : 1.730
Frame rate                               : 25.000 fps
Color space                              : YUV
Chroma subsampling                       : 4:2:0
Bit depth                                : 8 bits
Scan type                                : Progressive
Compression mode                         : Lossy
Bits/(Pixel*Frame)                       : 0.274
Stream size                              : 683 MiB (93%)
Writing library                          : DivX 5.0.2 (UTC 2002-05-16)

Audio
ID                                       : 1
Format                                   : WMA
Format version                           : Version 2
Codec ID                                 : 161
Codec ID/Info                            : Windows Media Audio
Duration                                 : 1h 32mn
Bit rate                                 : 64.1 Kbps
Channel(s)                               : 2 channels
Sampling rate                            : 44.1 KHz
Bit depth                                : 16 bits
Stream size                              : 42.2 MiB (6%)
Interleave, duration                     : 46 ms (1.16 video frame)
Interleave, preload duration             : 464 ms
